<mxfile host="app.diagrams.net" modified="2024-05-04T12:58:48.533Z" agent="Mozilla/5.0 (Windows NT 10.0; Win64; x64) AppleWebKit/537.36 (KHTML, like Gecko) Chrome/124.0.0.0 Safari/537.36" etag="ok-h4WC8u7-pXfTnPGXi" version="24.3.1" type="device">
  <diagram id="eR1Zb5RVLTV1uuEW3yPG" name="Page-1">
    <mxGraphModel dx="880" dy="2814" grid="1" gridSize="10" guides="1" tooltips="1" connect="1" arrows="1" fold="1" page="1" pageScale="1" pageWidth="827" pageHeight="1169" math="0" shadow="0">
      <root>
        <mxCell id="0" />
        <mxCell id="1" parent="0" />
        <mxCell id="NN8kFv3UxyB4Z3Qv7Q7P-32" style="edgeStyle=orthogonalEdgeStyle;rounded=0;orthogonalLoop=1;jettySize=auto;html=1;exitX=1;exitY=0.5;exitDx=0;exitDy=0;entryX=0.5;entryY=0;entryDx=0;entryDy=0;" parent="1" edge="1">
          <mxGeometry relative="1" as="geometry">
            <mxPoint x="560" y="400" as="sourcePoint" />
          </mxGeometry>
        </mxCell>
        <mxCell id="NN8kFv3UxyB4Z3Qv7Q7P-39" style="edgeStyle=orthogonalEdgeStyle;rounded=0;orthogonalLoop=1;jettySize=auto;html=1;exitX=0;exitY=0.5;exitDx=0;exitDy=0;entryX=0;entryY=0;entryDx=40;entryDy=0;entryPerimeter=0;" parent="1" edge="1">
          <mxGeometry relative="1" as="geometry">
            <mxPoint x="480" y="400" as="sourcePoint" />
          </mxGeometry>
        </mxCell>
        <mxCell id="NN8kFv3UxyB4Z3Qv7Q7P-33" style="edgeStyle=orthogonalEdgeStyle;rounded=0;orthogonalLoop=1;jettySize=auto;html=1;exitX=1;exitY=0.5;exitDx=0;exitDy=0;" parent="1" edge="1">
          <mxGeometry relative="1" as="geometry">
            <mxPoint x="640" y="480" as="sourcePoint" />
          </mxGeometry>
        </mxCell>
        <mxCell id="NN8kFv3UxyB4Z3Qv7Q7P-38" style="edgeStyle=orthogonalEdgeStyle;rounded=0;orthogonalLoop=1;jettySize=auto;html=1;exitX=0;exitY=0.5;exitDx=0;exitDy=0;entryX=0;entryY=0;entryDx=40;entryDy=0;entryPerimeter=0;" parent="1" edge="1">
          <mxGeometry relative="1" as="geometry">
            <mxPoint x="560" y="480" as="sourcePoint" />
          </mxGeometry>
        </mxCell>
        <mxCell id="NN8kFv3UxyB4Z3Qv7Q7P-37" style="edgeStyle=orthogonalEdgeStyle;rounded=0;orthogonalLoop=1;jettySize=auto;html=1;exitX=0;exitY=0.5;exitDx=0;exitDy=0;entryX=0;entryY=0;entryDx=40;entryDy=0;entryPerimeter=0;" parent="1" edge="1">
          <mxGeometry relative="1" as="geometry">
            <mxPoint x="640" y="560" as="sourcePoint" />
          </mxGeometry>
        </mxCell>
        <mxCell id="NN8kFv3UxyB4Z3Qv7Q7P-41" style="edgeStyle=orthogonalEdgeStyle;rounded=0;orthogonalLoop=1;jettySize=auto;html=1;exitX=1;exitY=0.5;exitDx=0;exitDy=0;entryX=0;entryY=0;entryDx=40;entryDy=0;entryPerimeter=0;" parent="1" edge="1">
          <mxGeometry relative="1" as="geometry">
            <mxPoint x="720" y="560" as="sourcePoint" />
          </mxGeometry>
        </mxCell>
        <mxCell id="sSCpmMaVxi6PYTEObbiI-27" style="edgeStyle=orthogonalEdgeStyle;rounded=0;orthogonalLoop=1;jettySize=auto;html=1;exitX=1;exitY=0.5;exitDx=0;exitDy=0;entryX=0;entryY=0.5;entryDx=0;entryDy=0;" parent="1" edge="1">
          <mxGeometry relative="1" as="geometry">
            <Array as="points">
              <mxPoint x="220" y="600" />
              <mxPoint x="220" y="750" />
              <mxPoint x="40" y="750" />
              <mxPoint x="40" y="320" />
            </Array>
            <mxPoint x="100" y="320" as="targetPoint" />
          </mxGeometry>
        </mxCell>
        <mxCell id="4o-lOPJ51wKIezAghSig-40" style="edgeStyle=orthogonalEdgeStyle;rounded=0;orthogonalLoop=1;jettySize=auto;html=1;exitX=0.5;exitY=1;exitDx=0;exitDy=0;entryX=0.5;entryY=0;entryDx=0;entryDy=0;" parent="1" source="lwcZz6v842X9FkbV30nD-1" target="4o-lOPJ51wKIezAghSig-38" edge="1">
          <mxGeometry relative="1" as="geometry" />
        </mxCell>
        <mxCell id="lwcZz6v842X9FkbV30nD-1" value="InÃ­cio" style="ellipse;whiteSpace=wrap;html=1;" parent="1" vertex="1">
          <mxGeometry x="253" y="-1810" width="120" height="40" as="geometry" />
        </mxCell>
        <mxCell id="NFvZZmDYg6qZ6bP0rbpK-52" value="V" style="text;html=1;strokeColor=none;fillColor=none;align=center;verticalAlign=middle;whiteSpace=wrap;rounded=0;" parent="1" vertex="1">
          <mxGeometry x="283.75" y="-1217.5" width="30" height="20" as="geometry" />
        </mxCell>
        <mxCell id="fgQoKuZkV8or9lU69tf7-6" style="edgeStyle=orthogonalEdgeStyle;rounded=0;orthogonalLoop=1;jettySize=auto;html=1;exitX=0.5;exitY=1;exitDx=0;exitDy=0;entryX=0.5;entryY=0;entryDx=0;entryDy=0;" parent="1" edge="1">
          <mxGeometry relative="1" as="geometry">
            <mxPoint x="316.75" y="-1378.5" as="targetPoint" />
            <mxPoint x="316.75" y="-1418.5" as="sourcePoint" />
          </mxGeometry>
        </mxCell>
        <mxCell id="fgQoKuZkV8or9lU69tf7-8" style="edgeStyle=orthogonalEdgeStyle;rounded=0;orthogonalLoop=1;jettySize=auto;html=1;exitX=0.5;exitY=1;exitDx=0;exitDy=0;entryX=0.5;entryY=0;entryDx=0;entryDy=0;" parent="1" source="fgQoKuZkV8or9lU69tf7-2" target="fgQoKuZkV8or9lU69tf7-4" edge="1">
          <mxGeometry relative="1" as="geometry" />
        </mxCell>
        <mxCell id="wnwEwymPMFFfEoXDUTzR-3" style="edgeStyle=orthogonalEdgeStyle;rounded=0;orthogonalLoop=1;jettySize=auto;html=1;exitX=1;exitY=0.5;exitDx=0;exitDy=0;entryX=0.5;entryY=0;entryDx=0;entryDy=0;" edge="1" parent="1" source="fgQoKuZkV8or9lU69tf7-2" target="4o-lOPJ51wKIezAghSig-16">
          <mxGeometry relative="1" as="geometry" />
        </mxCell>
        <mxCell id="fgQoKuZkV8or9lU69tf7-2" value="int i &amp;lt;- 0; str[i]; i++" style="rhombus;whiteSpace=wrap;html=1;" parent="1" vertex="1">
          <mxGeometry x="226.75" y="-1378.5" width="180" height="90" as="geometry" />
        </mxCell>
        <mxCell id="fgQoKuZkV8or9lU69tf7-9" style="edgeStyle=orthogonalEdgeStyle;rounded=0;orthogonalLoop=1;jettySize=auto;html=1;exitX=0;exitY=0.5;exitDx=0;exitDy=0;entryX=0;entryY=0.5;entryDx=0;entryDy=0;" parent="1" source="fgQoKuZkV8or9lU69tf7-4" target="fgQoKuZkV8or9lU69tf7-2" edge="1">
          <mxGeometry relative="1" as="geometry" />
        </mxCell>
        <mxCell id="fgQoKuZkV8or9lU69tf7-4" value="str[i] &amp;lt;- toupper(str[i]);" style="rounded=0;whiteSpace=wrap;html=1;" parent="1" vertex="1">
          <mxGeometry x="262.75" y="-1178.5" width="108" height="33" as="geometry" />
        </mxCell>
        <mxCell id="fgQoKuZkV8or9lU69tf7-16" value="Fim" style="ellipse;whiteSpace=wrap;html=1;" parent="1" vertex="1">
          <mxGeometry x="560" y="-1070" width="120" height="40" as="geometry" />
        </mxCell>
        <mxCell id="wsi5-25m1rzmmsr4iQMM-1" value="F" style="text;html=1;strokeColor=none;fillColor=none;align=center;verticalAlign=middle;whiteSpace=wrap;rounded=0;" parent="1" vertex="1">
          <mxGeometry x="399" y="-1320" width="30" height="20" as="geometry" />
        </mxCell>
        <mxCell id="4o-lOPJ51wKIezAghSig-1" value="&lt;div&gt;char senha[50];&lt;/div&gt;" style="rounded=0;whiteSpace=wrap;html=1;" parent="1" vertex="1">
          <mxGeometry x="225.5" y="-1680" width="181" height="50" as="geometry" />
        </mxCell>
        <mxCell id="wnwEwymPMFFfEoXDUTzR-2" style="edgeStyle=orthogonalEdgeStyle;rounded=0;orthogonalLoop=1;jettySize=auto;html=1;exitX=0.5;exitY=1;exitDx=0;exitDy=0;entryX=0.5;entryY=0;entryDx=0;entryDy=0;" edge="1" parent="1" source="4o-lOPJ51wKIezAghSig-3" target="wnwEwymPMFFfEoXDUTzR-1">
          <mxGeometry relative="1" as="geometry" />
        </mxCell>
        <mxCell id="4o-lOPJ51wKIezAghSig-3" value="senha" style="shape=manualInput;whiteSpace=wrap;html=1;" parent="1" vertex="1">
          <mxGeometry x="263" y="-1530" width="110" height="40" as="geometry" />
        </mxCell>
        <mxCell id="4o-lOPJ51wKIezAghSig-4" value="&lt;div&gt;Digite sua senha:&lt;/div&gt;" style="shape=display;whiteSpace=wrap;html=1;" parent="1" vertex="1">
          <mxGeometry x="243.5" y="-1600" width="149" height="40" as="geometry" />
        </mxCell>
        <mxCell id="4o-lOPJ51wKIezAghSig-5" style="edgeStyle=orthogonalEdgeStyle;rounded=0;orthogonalLoop=1;jettySize=auto;html=1;exitX=0.5;exitY=1;exitDx=0;exitDy=0;entryX=0.495;entryY=-0.075;entryDx=0;entryDy=0;entryPerimeter=0;" parent="1" source="4o-lOPJ51wKIezAghSig-1" target="4o-lOPJ51wKIezAghSig-4" edge="1">
          <mxGeometry relative="1" as="geometry" />
        </mxCell>
        <mxCell id="4o-lOPJ51wKIezAghSig-6" style="edgeStyle=orthogonalEdgeStyle;rounded=0;orthogonalLoop=1;jettySize=auto;html=1;exitX=0;exitY=0;exitDx=108.75;exitDy=40;exitPerimeter=0;entryX=0.464;entryY=0.3;entryDx=0;entryDy=0;entryPerimeter=0;" parent="1" source="4o-lOPJ51wKIezAghSig-4" target="4o-lOPJ51wKIezAghSig-3" edge="1">
          <mxGeometry relative="1" as="geometry">
            <Array as="points">
              <mxPoint x="314" y="-1560" />
            </Array>
          </mxGeometry>
        </mxCell>
        <mxCell id="4o-lOPJ51wKIezAghSig-16" value="strcmp(senha, &quot;ABRACADABRA&quot;) == 0" style="rhombus;whiteSpace=wrap;html=1;" parent="1" vertex="1">
          <mxGeometry x="460" y="-1310" width="169" height="130" as="geometry" />
        </mxCell>
        <mxCell id="wnwEwymPMFFfEoXDUTzR-7" style="edgeStyle=orthogonalEdgeStyle;rounded=0;orthogonalLoop=1;jettySize=auto;html=1;exitX=0;exitY=0;exitDx=77.1875;exitDy=40;exitPerimeter=0;entryX=0.5;entryY=0;entryDx=0;entryDy=0;" edge="1" parent="1" source="4o-lOPJ51wKIezAghSig-18" target="fgQoKuZkV8or9lU69tf7-16">
          <mxGeometry relative="1" as="geometry" />
        </mxCell>
        <mxCell id="4o-lOPJ51wKIezAghSig-18" value="&lt;div&gt;\nOK\n&lt;/div&gt;" style="shape=display;whiteSpace=wrap;html=1;" parent="1" vertex="1">
          <mxGeometry x="467.75" y="-1145.5" width="139.5" height="40" as="geometry" />
        </mxCell>
        <mxCell id="wnwEwymPMFFfEoXDUTzR-6" style="edgeStyle=orthogonalEdgeStyle;rounded=0;orthogonalLoop=1;jettySize=auto;html=1;exitX=0;exitY=0;exitDx=77.1875;exitDy=40;exitPerimeter=0;entryX=0.5;entryY=0;entryDx=0;entryDy=0;" edge="1" parent="1" source="4o-lOPJ51wKIezAghSig-20" target="fgQoKuZkV8or9lU69tf7-16">
          <mxGeometry relative="1" as="geometry" />
        </mxCell>
        <mxCell id="4o-lOPJ51wKIezAghSig-20" value="&lt;div&gt;\nSenha n%co encontrada!\n&quot;, 198&lt;/div&gt;" style="shape=display;whiteSpace=wrap;html=1;" parent="1" vertex="1">
          <mxGeometry x="629" y="-1145.5" width="139.5" height="40" as="geometry" />
        </mxCell>
        <mxCell id="4o-lOPJ51wKIezAghSig-21" style="edgeStyle=orthogonalEdgeStyle;rounded=0;orthogonalLoop=1;jettySize=auto;html=1;exitX=1;exitY=0.5;exitDx=0;exitDy=0;entryX=0;entryY=0;entryDx=77.1875;entryDy=0;entryPerimeter=0;" parent="1" source="4o-lOPJ51wKIezAghSig-16" target="4o-lOPJ51wKIezAghSig-20" edge="1">
          <mxGeometry relative="1" as="geometry" />
        </mxCell>
        <mxCell id="4o-lOPJ51wKIezAghSig-22" value="F" style="text;html=1;strokeColor=none;fillColor=none;align=center;verticalAlign=middle;whiteSpace=wrap;rounded=0;" parent="1" vertex="1">
          <mxGeometry x="629" y="-1270" width="30" height="20" as="geometry" />
        </mxCell>
        <mxCell id="4o-lOPJ51wKIezAghSig-23" value="V" style="text;html=1;strokeColor=none;fillColor=none;align=center;verticalAlign=middle;whiteSpace=wrap;rounded=0;" parent="1" vertex="1">
          <mxGeometry x="510" y="-1180" width="30" height="20" as="geometry" />
        </mxCell>
        <mxCell id="4o-lOPJ51wKIezAghSig-39" style="edgeStyle=orthogonalEdgeStyle;rounded=0;orthogonalLoop=1;jettySize=auto;html=1;exitX=0.5;exitY=1;exitDx=0;exitDy=0;entryX=0.5;entryY=0;entryDx=0;entryDy=0;" parent="1" source="4o-lOPJ51wKIezAghSig-38" target="4o-lOPJ51wKIezAghSig-1" edge="1">
          <mxGeometry relative="1" as="geometry" />
        </mxCell>
        <mxCell id="4o-lOPJ51wKIezAghSig-38" value="toToupper(char *str)" style="rounded=0;whiteSpace=wrap;html=1;" parent="1" vertex="1">
          <mxGeometry x="225.5" y="-1740" width="181" height="33" as="geometry" />
        </mxCell>
        <mxCell id="wnwEwymPMFFfEoXDUTzR-1" value="toToupper(senha)" style="rounded=0;whiteSpace=wrap;html=1;" vertex="1" parent="1">
          <mxGeometry x="219" y="-1450" width="198" height="31.5" as="geometry" />
        </mxCell>
        <mxCell id="wnwEwymPMFFfEoXDUTzR-5" style="edgeStyle=orthogonalEdgeStyle;rounded=0;orthogonalLoop=1;jettySize=auto;html=1;exitX=0.5;exitY=1;exitDx=0;exitDy=0;entryX=0;entryY=0;entryDx=77.1875;entryDy=0;entryPerimeter=0;" edge="1" parent="1" source="4o-lOPJ51wKIezAghSig-16" target="4o-lOPJ51wKIezAghSig-18">
          <mxGeometry relative="1" as="geometry" />
        </mxCell>
      </root>
    </mxGraphModel>
  </diagram>
</mxfile>
